[img]http://imgr.us/images/vzpu3io8te7e62c9jdpk.png[/img]
-------------------------------------------------
[img]http://imgr.us/images/q9oy4odn5053an1o867h.png[/img]
-------------------------------------------------
File Name    : Piano Lessons Can Be Murder
Type         : TV Series
Format       : AVI
File Size    : 290 MB
Duration     : 00:21:09
Language     : English
Source       : TV
Episode      : 8
Air Date     : Friday December 8, 1995
Subtitles    : None
Genre        : Family | Fantasy | Horror
IMDB Link    : http://www.imdb.com/title/tt0591358/
-------------------------------------------------
[img]http://imgr.us/images/a14k8fabur54ad5gubq4.png[/img]
-------------------------------------------------
Format                           : MPEG-4 Visual
Format profile                   : Advanced Simple@L5
Format settings, BVOP            : 1
Format settings, QPel            : No
Format settings, GMC             : No warppoints
Format settings, Matrix          : Custom
Codec ID                         : XVID
Codec ID/Hint                    : XviD
Duration                         : 21mn 9s
Bit rate                         : 1 655 Kbps
Width                            : 720 pixels
Height                           : 544 pixels
Display aspect ratio             : 4:3
Frame rate                       : 23.976 fps
Color space                      : YUV
Chroma subsampling               : 4:2:0
Bit depth                        : 8 bits
Scan type                        : Progressive
Compression mode                 : Lossy
Bits/(Pixel*Frame)               : 0.176
Stream size                      : 251 MiB (86%)
Writing library                  : XviD 58
-------------------------------------------------
[img]http://imgr.us/images/2s0oz5wrpxo5em2q6m.png[/img]
-------------------------------------------------
Format                           : MPEG Audio
Format version                   : Version 1
Format profile                   : Layer 2
Codec ID                         : 50
Duration                         : 21mn 9s
Bit rate mode                    : Constant
Bit rate                         : 256 Kbps
Channel(s)                       : 2 channels
Sampling rate                    : 48.0 KHz
Compression mode                 : Lossy
Delay relative to video          : 48ms
Stream size                      : 38.7 MiB (13%)
Alignment                        : Aligned on interleaves
Interleave, duration             : 83 ms (2.00 video frames)
Interleave, preload duration     : 504 ms
-------------------------------------------------
[img]http://imgr.us/images/bnnacqs56aalgsuyqma.png[/img]
-------------------------------------------------
Jerry Hawkins' family has just moved into a new house, 
with a new neighborhood and school following it. Jerry, 
an imaginative young man, is playing a game with himself 
when his father begins to move boxes into the basement, 
and they then find a dusty old piano. Jerry doesn't really 
want to take lessons, but decides it'd be kinda cool after 
he tells a girl that he takes lessons, so his parents take 
him to Dr. Shreek's School of Music. However, unknown to 
Jerry and his family, the school, and the piano have a very 
ghastly secret...
-------------------------------------------------
[img]http://imgr.us/images/7clcz7gn5qp6df9a7b1t.png[/img]
[img]http://imgr.us/images/u3qc6jruhm3cydizb9yy.png[/img]
[img]http://imgr.us/images/a7fuvxm1719s7w0m6ekh.png[/img]
[img]http://imgr.us/images/dzahfd7c9b5ciuvzn8.png[/img]
[img]http://imgr.us/images/394ddz7qc7h0qk5mb3q.png[/img]
[img]http://imgr.us/images/mdlitbiesmgub6uv2pt2.jpg[/img]